#!OML:ASF F:\VICON\USERDATA\INSTALL\rory3\rory3.ASF
:FULLY-SPECIFIED
:DEGREES
493
root 2.38171 19.4355 2.55239 -6.11477 -56.6647 8.88892
lowerback 7.04127 -0.265654 -6.32693
upperback -8.07644 -1.83959 -4.21521
thorax -12.766 -0.616148 -0.731899
lowerneck -21.7818 -11.3585 -14.3954
upperneck -6.13626 -12.179 14.7296
head 3.32781 -5.35044 5.67821
rclavicle -7.91163e-014 0
rhumerus 85.6713 -33.4024 -32.9626
rradius 27.0134
rwrist 18.9639
rhand -18.4051 -7.70723
rfingers 7.12502
rthumb 7.87935 -37.5404
lclavicle -7.91163e-014 0
lhumerus 88.682 32.4698 27.0685
lradius 25.0695
lwrist -17.7801
lhand -11.9621 24.0588
lfingers 7.12502
lthumb 14.0935 53.5608
rfemur -2.73508 9.0445 17.4557
rtibia 27.1291
rfoot 10.6296 -22.228
rtoes 14.0035
lfemur -24.2505 -1.48663 -14.3314
ltibia 36.3652
lfoot 17.7273 -8.22448
ltoes -7.27297
494
root 2.40126 19.4287 2.57128 -6.04953 -56.7446 8.86211
lowerback 7.15068 -0.197726 -6.22077
upperback -8.05819 -1.72825 -4.12183
thorax -12.813 -0.564631 -0.707635
lowerneck -21.5219 -11.3977 -14.8576
upperneck -6.1648 -12.1527 14.7979
head 3.31038 -5.33602 5.78258
rclavicle 1.2424e-013 -1.27222e-014
rhumerus 85.7443 -33.3151 -32.847
rradius 27.1095
rwrist 19.2245
rhand -18.2699 -7.47445
rfingers 7.12502
rthumb 8.00981 -37.3027
lclavicle 1.2424e-013 -1.27222e-014
lhumerus 88.8984 32.4238 27.53
lradius 24.9336
lwrist -18.1556
lhand -12.444 23.576
lfingers 7.12502
lthumb 13.6291 53.1098
rfemur -2.70651 9.02499 17.4168
rtibia 27.0583
rfoot 10.6561 -21.8454
rtoes 13.4758
lfemur -24.4122 -1.79297 -14.1834
ltibia 36.223
lfoot 17.562 -7.56965
ltoes -8.91635
495
root 2.41783 19.4267 2.5893 -5.96733 -56.8352 8.82169
lowerback 7.19302 -0.225067 -6.08127
upperback -7.94039 -1.74286 -4.16018
thorax -12.7037 -0.588597 -0.821385
lowerneck -21.6367 -11.3589 -14.6129
upperneck -6.1745 -12.1485 14.8007
head 3.31037 -5.33606 5.74327
rclavicle 1.30602e-013 1.35174e-014
rhumerus 85.9127 -33.278 -33.1028
rradius 27.136
rwrist 19.4641
rhand -18.3564 -7.44684
rfingers 7.12502
rthumb 7.92633 -37.2782
lclavicle 1.30602e-013 1.35174e-014
lhumerus 88.8996 32.5996 27.3667
lradius 24.9984
lwrist -18.1945
lhand -12.7262 23.6425
lfingers 7.12502
lthumb 13.3571 53.1943
rfemur -2.69076 9.0477 17.387
rtibia 27.0294
rfoot 10.4992 -21.626
rtoes 13.6427
lfemur -24.595 -2.0507 -14.0599
ltibia 36.1114
lfoot 17.5456 -6.83541
ltoes -9.93087
496
root 2.43511 19.4223 2.61146 -5.90495 -56.9008 8.72725
lowerback 7.30012 -0.264792 -5.95476
upperback -7.82717 -1.77058 -4.1119
thorax -12.6358 -0.610275 -0.830661
lowerneck -21.7658 -11.2753 -14.244
upperneck -6.26978 -12.1018 14.6762
head 3.26175 -5.32332 5.65259
rclavicle -1.96797e-014 2.38542e-015
rhumerus 86.3216 -33.0577 -33.5652
rradius 27.0737
rwrist 19.9474
rhand -18.2683 -7.38435
rfingers 7.12502
rthumb 8.01141 -37.2125
lclavicle -1.96797e-014 2.38542e-015
lhumerus 88.864 32.6992 27.4701
lradius 25.0425
lwrist -18.2266
lhand -13.3187 22.9723
lfingers 7.12502
lthumb 12.786 52.5607
rfemur -2.63785 9.05942 17.3888
rtibia 27.0379
rfoot 10.4366 -21.3467
rtoes 13.8912
lfemur -24.7018 -2.14684 -13.9876
ltibia 36.0263
lfoot 17.5343 -6.24116
ltoes -10.5562
497
root 2.45371 19.4149 2.63256 -5.74004 -56.9948 8.612
lowerback 7.30869 -0.331055 -5.76933
upperback -7.67397 -1.82509 -4.15059
thorax -12.4647 -0.657981 -0.962474
lowerneck -22.1669 -11.1218 -13.4237
upperneck -6.3632 -12.0355 14.3716
head 3.20786 -5.30791 5.43132
rclavicle 1.96797e-014 -7.23576e-014
rhumerus 86.7192 -33.002 -34.2265
rradius 27.0265
rwrist 20.3842
rhand -18.0312 -7.30772
rfingers 7.12502
rthumb 8.2402 -37.127
lclavicle 1.96797e-014 -7.23576e-014
lhumerus 88.8341 32.9378 27.26
lradius 25.1887
lwrist -17.992
lhand -13.6547 22.4618
lfingers 7.12502
lthumb 12.4621 52.0703
rfemur -2.70182 9.18483 17.4095
rtibia 27.0551
rfoot 10.3608 -21.1281
rtoes 13.9509
lfemur -24.8873 -2.21254 -13.9176
ltibia 35.9674
lfoot 17.5334 -5.53454
ltoes -10.3613
498
root 2.47038 19.4083 2.65282 -5.69122 -57.1103 8.59695
lowerback 7.4197 -0.156101 -5.78894
upperback -7.80069 -1.59158 -3.99044
thorax -12.6804 -0.529983 -0.821296
lowerneck -21.3161 -11.3119 -14.2209
upperneck -6.74913 -12.1834 14.6529
head 3.06086 -5.38887 5.65468
rclavicle -6.75868e-015 1.27222e-014
rhumerus 86.026 -32.7871 -33.1596
rradius 27.1252
rwrist 20.1006
rhand -17.6014 -7.45116
rfingers 7.12502
rthumb 8.65504 -37.2537
lclavicle -6.75868e-015 1.27222e-014
lhumerus 88.7372 32.5452 27.6034
lradius 25.2754
lwrist -17.7247
lhand -13.5271 23.0439
lfingers 7.12502
lthumb 12.585 52.6448
rfemur -2.75494 9.20854 17.3494
rtibia 27.0689
rfoot 10.7557 -20.7549
rtoes 13.3804
lfemur -25.0438 -2.10292 -13.9558
ltibia 35.942
lfoot 17.6047 -4.89706
ltoes -10.2205
499
root 2.48537 19.4029 2.67718 -5.70348 -57.2043 8.54105
lowerback 7.5677 -0.143995 -5.70761
upperback -7.69897 -1.56717 -3.99516
thorax -12.6549 -0.525644 -0.873644
lowerneck -21.3446 -11.3805 -14.3519
upperneck -6.85835 -12.2475 14.9253
head 3.07266 -5.41036 5.75275
rclavicle -7.95139e-016 4.77083e-014
rhumerus 86.0687 -32.6578 -33.3292
rradius 27.0145
rwrist 20.2176
rhand -17.1931 -7.46924
rfingers 7.12502
rthumb 9.04903 -37.2551
lclavicle -7.95139e-016 4.77083e-014
lhumerus 88.5808 32.5931 27.3698
lradius 25.4181
lwrist -17.5935
lhand -13.759 23.7327
lfingers 7.12502
lthumb 12.3615 53.3472
rfemur -2.74077 9.00114 17.2884
rtibia 27.1175
rfoot 11.6803 -20.2061
rtoes 12.5386
lfemur -25.0976 -1.7467 -14.0795
ltibia 35.9137
lfoot 17.6835 -5.0001
ltoes -11.1811
500
root 2.50157 19.4011 2.7077 -5.54315 -57.2288 8.34897
lowerback 7.65801 -0.188405 -5.48758
upperback -7.65805 -1.59274 -3.93998
thorax -12.6623 -0.553041 -0.92993
lowerneck -21.4299 -11.4387 -14.5142
upperneck -6.82608 -12.2862 15.0989
head 3.12438 -5.41723 5.82332
rclavicle 4.96962e-014 1.51076e-014
rhumerus 86.0017 -32.3912 -33.3047
rradius 26.9444
rwrist 20.2497
rhand -16.9365 -7.54127
rfingers 7.12502
rthumb 9.29657 -37.3163
lclavicle 4.96962e-014 1.51076e-014
lhumerus 88.2739 32.6202 27.1304
lradius 25.5713
lwrist -17.4822
lhand -13.7415 23.8833
lfingers 7.12502
lthumb 12.3784 53.4968
rfemur -2.76665 8.92034 17.3008
rtibia 27.1704
rfoot 12.0131 -20.0452
rtoes 12.007
lfemur -25.2195 -1.39311 -14.1782
ltibia 35.8904
lfoot 17.7448 -5.10565
ltoes -11.7639
501
root 2.51481 19.3992 2.7362 -5.5318 -57.267 8.3331
lowerback 7.69106 -0.200058 -5.39915
upperback -7.5998 -1.58736 -3.89826
thorax -12.6139 -0.555859 -0.932973
lowerneck -21.5063 -11.3953 -14.3601
upperneck -6.83357 -12.2459 14.8836
head 3.09781 -5.40599 5.73592
rclavicle 3.06128e-014 6.36111e-015
rhumerus 85.6332 -32.2597 -32.8787
rradius 26.9678
rwrist 19.9955
rhand -16.6214 -7.40149
rfingers 7.12502
rthumb 9.6006 -37.1627
lclavicle 3.06128e-014 6.36111e-015
lhumerus 87.9092 32.6707 26.7533
lradius 25.7741
lwrist -17.106
lhand -13.5836 23.6403
lfingers 7.12502
lthumb 12.5305 53.2446
rfemur -2.78239 9.04739 17.2291
rtibia 27.2282
rfoot 11.792 -20.2119
rtoes 11.8832
lfemur -25.3188 -1.22923 -14.3491
ltibia 35.8644
lfoot 17.8176 -4.78546
ltoes -11.5233
502
root 2.52601 19.3983 2.76442 -5.53207 -57.3533 8.30781
lowerback 7.74429 -0.137695 -5.37049
upperback -7.53639 -1.49409 -3.87825
thorax -12.5745 -0.512738 -0.942645
lowerneck -21.5749 -11.3498 -14.0334
upperneck -6.89622 -12.237 14.5714
head 3.03929 -5.41782 5.58912
rclavicle 5.42682e-014 5.08889e-014
rhumerus 85.0087 -32.2193 -32.2414
rradius 27.0281
rwrist 19.665
rhand -16.3384 -7.37684
rfingers 7.12502
rthumb 9.8737 -37.1253
lclavicle 5.42682e-014 5.08889e-014
lhumerus 87.8266 32.5746 26.6565
lradius 25.8909
lwrist -16.806
lhand -13.8135 23.0057
lfingers 7.12502
lthumb 12.309 52.6234
rfemur -2.82737 9.2038 17.148
rtibia 27.3215
rfoot 11.7075 -20.2937
rtoes 12.3007
lfemur -25.3764 -0.861224 -14.5684
ltibia 35.825
lfoot 17.8675 -4.90281
ltoes -11.7152
503
root 2.53851 19.3999 2.79722 -5.48682 -57.4012 8.28857
lowerback 7.75207 -0.106847 -5.34641
upperback -7.47175 -1.43583 -3.82508
thorax -12.5032 -0.484201 -0.906917
lowerneck -21.6269 -11.3914 -14.1092
upperneck -7.0756 -12.2634 14.7059
head 3.01129 -5.42654 5.64199
rclavicle 2.127e-014 -7.95139e-015
rhumerus 84.8273 -32.0448 -32.1504
rradius 26.9956
rwrist 19.5916
rhand -16.142 -7.36785
rfingers 7.12502
rthumb 10.0631 -37.1072
lclavicle 2.127e-014 -7.95139e-015
lhumerus 87.8396 32.4879 26.8976
lradius 26.0071
lwrist -16.8719
lhand -13.9632 22.9979
lfingers 7.12502
lthumb 12.1646 52.6243
rfemur -2.97402 9.1937 17.0084
rtibia 27.4746
rfoot 11.8742 -20.2269
rtoes 11.9135
lfemur -25.4749 -0.223339 -14.8793
ltibia 35.7631
lfoot 17.94 -5.63812
ltoes -12.5867
504
root 2.55215 19.397 2.83299 -5.33844 -57.4898 8.15641
lowerback 7.73976 -0.125485 -5.25967
upperback -7.4024 -1.42624 -3.71325
thorax -12.4113 -0.480803 -0.832877
lowerneck -21.5998 -11.4366 -14.5036
upperneck -7.32579 -12.2345 15.0544
head 2.98125 -5.39893 5.82269
rclavicle 3.97569e-014 -9.54166e-015
rhumerus 84.9246 -31.7962 -32.381
rradius 26.9185
rwrist 19.5183
rhand -16.123 -7.05459
rfingers 7.12502
rthumb 10.0815 -36.7931
lclavicle 3.97569e-014 -9.54166e-015
lhumerus 87.2584 32.6482 26.3198
lradius 26.1872
lwrist -16.5586
lhand -14.2878 22.9713
lfingers 7.12502
lthumb 11.8516 52.6159
rfemur -3.15422 9.08882 16.9058
rtibia 27.6718
rfoot 11.9862 -20.2067
rtoes 11.7409
lfemur -25.5911 0.328365 -15.0946
ltibia 35.6926
lfoot 18.0581 -6.02326
ltoes -12.407
505
root 2.56333 19.39 2.87059 -4.95952 -57.8276 7.84346
lowerback 7.53837 -0.0756863 -5.04558
upperback -7.28652 -1.28922 -3.61288
thorax -12.1533 -0.431164 -0.864196
lowerneck -21.8911 -11.4315 -14.4554
upperneck -7.45687 -12.1987 15.0976
head 2.97656 -5.37475 5.82889
rclavicle -3.77691e-015 -4.77083e-014
rhumerus 84.6295 -31.7935 -32.052
rradius 26.9267
rwrist 18.9084
rhand -16.4191 -6.87666
rfingers 7.12502
rthumb 9.79587 -36.6288
lclavicle -3.77691e-015 -4.77083e-014
lhumerus 86.6284 32.9503 25.4021
lradius 26.3521
lwrist -15.9366
lhand -14.7672 22.6107
lfingers 7.12502
lthumb 11.3893 52.2814
rfemur -3.48151 9.01082 16.8793
rtibia 27.9018
rfoot 12.2801 -20.1335
rtoes 11.8662
lfemur -25.7135 0.329945 -15.0584
ltibia 35.6218
lfoot 17.8777 -5.73937
ltoes -11.6643
